/* XPM */
static char *e1d0c4d41be24fc4f07445f6e742cbe2Na3UAOXmUTo5OUrk[] = {
/* columns rows colors chars-per-pixel */
"40 40 9 1 ",
"  c #FFFFFF",
". c white",
"X c #C1D9F2",
"o c #FFE091",
"O c #6B74B2",
"+ c #464B8C",
"@ c #293268",
"# c #909EDD",
"$ c black",
/* pixels */
"                                        ",
"                                        ",
"                                        ",
"                                        ",
"                                        ",
"                                        ",
"                                        ",
"                                        ",
"                            ..          ",
"                           .XX.         ",
"                          .X..X...      ",
"                         .X.  .ooo.     ",
"                        .X.   .ooo.     ",
"                    .....X.   .ooo.     ",
"       ....       ..OOOOOO..   ...      ",
"      .+OOO.     .OOOOO@@@OO.           ",
"      .@+++O.  ..OOOO@@###@OO.          ",
"       .@+++O..OOO@@@##$$.#@@O.         ",
"        .@@++OOOOO###++$$$###+O.        ",
"         ..@+OOO@O@OO++$$$OOOOO.        ",
"           .++OOO@O@OO+++++O@##.        ",
"         ..++++OO@O@OOO++++#X@#X.       ",
"        .OO++@++@O@OOO++@O@O#@X#.       ",
"       .O+++@.@++OOOO++@@O#@#@#O.       ",
"      .O++@@..@@+++++++@O##@++++.       ",
"      .@@@..  .@@++++++++++++@@.        ",
"       ...     ..@OO@+++++++@..         ",
"               .@++O@@++@@@@.           ",
"              .@@+++..@@....            ",
"              .@@@@.  ..                ",
"               ....                     ",
"                                        ",
"                                        ",
"                                        ",
"                                        ",
"                                        ",
"                                        ",
"                                        ",
"                                        ",
"                                        "
};
