/* XPM */
static char *cb307f39384f4748d1c9a3edc3826f82ffjBGzxQAxqy05u2[] = {
/* columns rows colors chars-per-pixel */
"120 120 66 1 ",
"  c #6AB7D7",
". c #69B7D7",
"X c #68B6D7",
"o c #67B6D7",
"O c #6BB7D7",
"+ c #6CB8D6",
"@ c #6DB8D6",
"# c #6EB9D6",
"$ c #6FB9D7",
"% c #70B9D5",
"& c #78BCD4",
"* c #7EBFD3",
"= c #84C1D4",
"- c #89C4D5",
"; c #8BC5D6",
": c #69B6D7",
"> c #77BCD4",
", c #86C1D0",
"< c #94C7CE",
"1 c #A0CCD0",
"2 c #AAD2D3",
"3 c #AED4D5",
"4 c #7ABDD3",
"5 c #8DC4CE",
"6 c #9ECBCC",
"7 c #ADD2CE",
"8 c #BAD8D2",
"9 c #BFDBD5",
"0 c #71BAD5",
"q c #79BCD4",
"w c #7CBED3",
"e c #88C2D0",
"r c #90C5CE",
"t c #87C2D0",
"y c #6FB9D6",
"u c #99C8CC",
"i c #8FC4CE",
"p c #7BBDD3",
"a c #70B9D6",
"s c #6CB8D7",
"d c #6EB9D7",
"f c #75BCD7",
"g c #82C1D7",
"h c #8AC5D6",
"j c #80BFD2",
"k c #7FBFD2",
"l c #7EBED2",
"z c #9BCCD7",
"x c #ABD3D6",
"c c #9FCCD0",
"v c #96C7CE",
"b c #95C6CD",
"n c #95C7CD",
"m c #92C6CE",
"M c #76BCD4",
"N c #88C4D7",
"B c #A7D1D7",
"V c #BCDAD6",
"C c #ADD1CE",
"Z c #A1CCCB",
"A c #9FCACA",
"S c #A0CBCA",
"D c #9CC9CB",
"F c #8DC4CF",
"G c #79BDD3",
"H c white",
/* pixels */
"                                                                                                                        ",
"                                                                                                                        ",
"                                                                                                                        ",
"                                                                                                                        ",
"                                                                                                                        ",
"                                                                                                                        ",
"                                                                                                                        ",
"                                                                                                                        ",
"                                                                                                                        ",
"                                                                                                                        ",
"                                                                                                                        ",
"                                                                                                                        ",
"                                                                                                                        ",
"                                                                                                                        ",
"                                                                                                                        ",
"                                                                                                                        ",
"                                                                                                                        ",
"                                                                                                                        ",
"                                                                                                                        ",
"                                                                                                                        ",
"                                                                                                                        ",
"                                                                                                                        ",
"                                                                                                                        ",
"                                                                                                                        ",
"                                                                                                                        ",
"                                                                                                                        ",
"                                                                                                                        ",
"                                                                                                                        ",
"                                                                                                                        ",
"                                                                                 ..XXXXX..                              ",
"                                                                                ..XXoooXX..                             ",
"                                                                                O+@#$$$#@+O                             ",
"                                                                              .O%&*=-;-=*&%O.                           ",
"                                                                             .:+>,<12321<,>+:.                          ",
"                                                                             .X@45678987654@X.                          ",
"                                                                             .:+>,<12321<,>+:.                          ",
"                                                                              .O%&*=-;-=*&%O.                           ",
"                                                                                O+@#$$$#@+O                             ",
"                                 ...   ...                                      ..XXoooXX..                             ",
"                                .:X.. ..X:.                                      ..XXXXX..                              ",
"                                O+@+O O+@+O                                                                             ",
"                              .O0qw&%+%&wq0O.                                                                           ",
"                             .:+qert>y>treq+:.                                                                          ",
"                             .X@wruipapiurw@X.                                                                          ",
"                             .:+qert>y>treq+:.                                                                          ",
"                              .O0qw&%+%&wq0O.                                                                           ",
"                                O+@+O O+@+O                                                                             ",
"                                .:X.. ..X:.                                                                             ",
"                                 ...   ...                                                                              ",
"                                                                                                                        ",
"                                                                                                                        ",
"                                                                                                                        ",
"                                                                                                                        ",
"                                                                                                                        ",
"                                                                                                                        ",
"                                                                                                                        ",
"                                                                                                                        ",
"                                                                                                                        ",
"                                                                                                                        ",
"                                                                                                                        ",
"                                                                                                                        ",
"                                                                                                                        ",
"                                                                                                                        ",
"                                                                                                                        ",
"                                                                                                                        ",
"                                                                                                                        ",
"                                                                                                                        ",
"                                                                                                                        ",
"                                                                                                                        ",
"                                                                                                                        ",
"                                                                                                                        ",
"                                                                                                                        ",
"                                                                                                                        ",
"                                                                                                                        ",
"                                                                                                                        ",
"                                                                                                                        ",
"                                                                                                                        ",
"                                                  .XXXX:.:..   ...                                                      ",
"                                                  .XooXXXXX.. ..X:.                                                     ",
"                                                  sd$$#@@@@+O O+@+O                                                     ",
"                                               ..sfgh-=jkkl&a+%&wq0O.                                                   ",
"                                               XXdgzx2cvbnm,My>treq+:.                                                  ",
"                                               Xo$NBV8CZASDFGapiurw@X.                                                  ",
"                                               XXdgzx2cvbnm,My>treq+:.                                                  ",
"                                               ..sfgh-=jkkl&a+%&wq0O.                                                   ",
"                                                  sd$$#@@@@+O O+@+O                                                     ",
"                                                  .XooXXXXX.. ..X:.                                                     ",
"                                                  .XXXX:.:..   ...                                                      ",
"                                                                                                                        ",
"                                                                                                                        ",
"                                                                                                                        ",
"                                                                                                                        ",
"                                                                                                                        ",
"                                                                                                                        ",
"                                                                                                                        ",
"                                                                                                                        ",
"                                                                                                                        ",
"                                                                                                                        ",
"                                                                                                                        ",
"                                                                                                                        ",
"                                                                                                                        ",
"                                                                                                                        ",
"                                                                                                                        ",
"                                                                                                                        ",
"                                                                                                                        ",
"                                                                                                                        ",
"                                                                                                                        ",
"                                                                                                                        ",
"                                                                                                                        ",
"                                                                                                                        ",
"                                                                                                                        ",
"                                                                                                                        ",
"                                                                                                                        ",
"                                                                                                                        ",
"                                                                                                                        ",
"                                                                                                                        ",
"                                                                                                                        ",
"                                                                                                                        ",
"                                                                                                                        ",
"                                                                                                                        "
};
