/* XPM */
static char *_20002460b0c4053e48a44ccdc75bb40IgIZdnD4xLucuRiu[] = {
/* columns rows colors chars-per-pixel */
"40 40 227 2 ",
"   c #FFFFFF",
".  c #251946",
"X  c #281D4A",
"o  c #2B214D",
"O  c #2D2452",
"+  c #2C2856",
"@  c #2C2C5C",
"#  c #292658",
"$  c #352A54",
"%  c #322F5D",
"&  c #35325F",
"*  c #3C345C",
"=  c #33274F",
"-  c #292D62",
";  c #2B3266",
":  c #2C356A",
">  c #2E396A",
",  c #333464",
"<  c #34376A",
"1  c #393965",
"2  c #2E3C74",
"3  c #243F7E",
"4  c #323C73",
"5  c #423C64",
"6  c #2C427C",
"7  c #34447D",
"8  c #3B497E",
"9  c #374479",
"0  c #3D416E",
"q  c #44436D",
"w  c #484266",
"e  c #544B6B",
"r  c #474B78",
"t  c #58587B",
"y  c #605B79",
"u  c #2D4A8A",
"i  c #324681",
"p  c #334B86",
"a  c #3C4E85",
"s  c #324B8A",
"d  c #384F8B",
"f  c #3E538C",
"g  c #38508B",
"h  c #325C9C",
"j  c #385794",
"k  c #2F518C",
"l  c #38639D",
"z  c #325CA1",
"x  c #3464A3",
"c  c #3E6DA4",
"v  c #3369A9",
"b  c #3572AF",
"n  c #3C75AB",
"m  c #3C76B2",
"M  c #3A77B2",
"N  c #4C5885",
"B  c #475789",
"V  c #545C84",
"C  c #595E86",
"Z  c #435C93",
"A  c #485F96",
"S  c #404F86",
"D  c #5C6286",
"F  c #586389",
"G  c #4D6495",
"H  c #49679B",
"J  c #526392",
"K  c #546A9B",
"L  c #586994",
"P  c #5A729D",
"I  c #686887",
"U  c #78738B",
"Y  c #697798",
"T  c #74799B",
"R  c #6B6B8B",
"E  c #446DA7",
"W  c #4773AB",
"Q  c #5272A3",
"!  c #5879A8",
"~  c #5074A8",
"^  c #677AA6",
"/  c #607FB0",
"(  c #867D93",
")  c #3B85BC",
"_  c #7F849E",
"`  c #5D83AF",
"'  c #4489BC",
"]  c #4C8BBC",
"[  c #4585B9",
"{  c #5E84B3",
"}  c #588AB8",
"|  c #5E95BE",
" . c #6982AC",
".. c #7989A9",
"X. c #6385B2",
"o. c #648AB5",
"O. c #698BB7",
"+. c #6D93BC",
"@. c #6992B8",
"#. c #7492B6",
"$. c #7394BB",
"%. c #7299BD",
"&. c #7B97B8",
"*. c #3E8AC1",
"=. c #488EC3",
"-. c #4C94C3",
";. c #4C9DCB",
":. c #4696C7",
">. c #5898C6",
",. c #6B99C1",
"<. c #749DC1",
"1. c #7B9EC3",
"2. c #7993C1",
"3. c #4BA2CC",
"4. c #5BA5CD",
"5. c #57A6CC",
"6. c #58A9D1",
"7. c #67A6CB",
"8. c #7CA2C4",
"9. c #7BA3C9",
"0. c #65B4D5",
"q. c #67B9D7",
"w. c #73BDDA",
"e. c #7BBCDA",
"r. c #71B5D5",
"t. c #61AAD1",
"y. c #6DC3DD",
"u. c #79C3DE",
"i. c #79C8DD",
"p. c #79CAE1",
"a. c #8E899D",
"s. c #9997A7",
"d. c #8698B8",
"f. c #919CB2",
"g. c #8893A7",
"h. c #92A4BA",
"j. c #89A1BD",
"k. c #A9A4B1",
"l. c #819EC3",
"z. c #8CACCC",
"x. c #86A8C8",
"c. c #97ABC6",
"v. c #8DB2CD",
"b. c #94B4CE",
"n. c #86ABD1",
"m. c #8DB3D2",
"M. c #84BBD7",
"N. c #87B8D9",
"B. c #92B5D3",
"V. c #96B9D6",
"C. c #9ABDD5",
"Z. c #97BCDB",
"A. c #9BBED9",
"S. c #9CB7D5",
"D. c #A3B3C8",
"F. c #A8B7C9",
"G. c #B6BFD1",
"H. c #A4B4CD",
"J. c #83C5DE",
"K. c #8BC9DF",
"L. c #9DC2DC",
"P. c #96C6DB",
"I. c #A4C6DF",
"U. c #AAC6DA",
"Y. c #B8CAD8",
"T. c #BAD3DF",
"R. c #84CAE1",
"E. c #9CCDE2",
"W. c #99C7E1",
"Q. c #8FD4E5",
"!. c #86D7E7",
"~. c #96D8E7",
"^. c #FFFFFF",
"/. c #A6C8E1",
"(. c #FFFFFF",
"). c #A5C9E6",
"_. c #B2CFE3",
"`. c #ADD4E5",
"'. c #A5D9E7",
"]. c #B5D2E5",
"[. c #BBD4E6",
"{. c #B2D5E9",
"}. c #BAD6E8",
"|. c #BDDBEA",
" X c #B4DBEA",
".X c #99E2EC",
"XX c #ABE4ED",
"oX c #A7E6ED",
"OX c #B7E7EF",
"+X c #BAE2EB",
"@X c #B9E9F3",
"#X c #BAF3F3",
"$X c #ADE8F2",
"%X c #C4CFDC",
"&X c #DADBDD",
"*X c #CCDADE",
"=X c #C4DBEA",
"-X c #CBDEEA",
";X c #C3D8E5",
":X c #D0DDEB",
">X c #C3E2ED",
",X c #CBE2ED",
"<X c #C9E8ED",
"1X c #D4E4ED",
"2X c #D8E6EB",
"3X c #C9E7F5",
"4X c #D3EDF2",
"5X c #DCEDF1",
"6X c #D5EDF9",
"7X c #C6F3F5",
"8X c #CBF5F5",
"9X c #C0F6F9",
"0X c #D3F5F5",
"qX c #DCF4F4",
"wX c #DBFBF9",
"eX c #D0F2FC",
"rX c #E2EDF1",
"tX c #E5F5F5",
"yX c #ECF4F4",
"uX c #E4F9F6",
"iX c #E3FDFA",
"pX c #EDFDFB",
"aX c #E8FAF7",
"sX c #F3FAF6",
"dX c #F3FEFA",
"fX c #F7FCF9",
"gX c #E0E5E7",
/* pixels */
"(.(.(.(.(.(.(.(.(.(.(.(.(.(.(.(.(.(.^.(.(.(.(.(.(.(.(.(.(.(.(.(.(.(.(.(.(.(.(.).",
"(.(.(.^.^.(.^.^.^.(.(.^.^.^.(.^.^.^.^.^.^.^.^.^.^.^.(.(.^.(.^.^.I.I.^.(.(.(.(.(.",
"(.(.(.(.^.^.^.^.^.^.^.^.(.(.(.^.^.^.^.^.^.^.^.^.^.^.(.^.^.(.^.^.I.(.(.(.(.(.(.(.",
"(.(.(.(.(.(.(.^.^.(.^.^.(.(.(.^.^.^.^.^.^.^.^.^.^.^.^.^.(.(.(.(.(.(.(.(.(.(.(.^.",
"(.(.(.(.(.(.(.(.(.(.(.(.(.(.(.^.^.^.^.(.(.].I.(.(.^.^.^.(.(.(.(.(.(.(.(.(.(.(.(.",
"(.^.(.(.(.(.(.(.(.(.(.^.^.(.(.(.(._.(.^.^.(.].[.^.(.1X(.^.(.(.(.(.(.^.(.^.(.(.(.",
"(.^.^.^.^.(.(.(.(.(.^.^._.(.^.(.1X=X_.[.2X1X(.^.].}.=XI.(.^.(.(.(.^.^.^.^.(.(.(.",
"(.^.^.^.^.^.^.(.(.^.(.(.].(.=X}.[.1XyX1X[.(.[.yXyX(.^.^.].[.tX].^.^.^.^.^.^.(./.",
"(.^.^.^.I.^.(.(.^._.-X(.(.5X|.].1XaX,X|. X5X5XsXrXrXrX=X(.(.].(.^.^.^.^.^.(.(.(.",
"(.(.(.(.].^.(.(.^.{.W.].rX}.>X4X$X@X/.4.6.6.3.q.J.E.+XrX,X].(.(.(.].(.^.^.(.^.^.",
"(.(.(.(.=X_.^.(.(.).{.yX/.'.oX~.6.;.:.0.R.i.e.E.OX~.w.K.(.1XrX(._.-X(.(.^.^.^.^.",
"(.(.(.^.(.=X^.|.(.|.sX).q.!.Q.' ) 6.| | ] :.:.0.y.K.'.tX=X(.,XtX=XI.I.(.(.(.^.^.",
"(.^.(.^.(.,X].(.}.yX'.p.i.w.' W W l k h x j h x [ 5.3.Q.qXsX[.{.sX-X(.(.^.(.^.^.",
"(.^.^.(.].=X(.(.-X0Xp.u.0.b l Z i p p 2 @ < 7 f k h x ] 0.oXfX1X].1X`.(.(.^.^.(.",
"(.^.(.(.].,XW.].<XoXy.7.m k K S 4 @ o O O + & 1 < 7 p  .+.) R.dX1X(.(.(.-X^.(.(.",
"(.I.(./.[.,XW.|.#X~.3.[ j 8 7 > . $ ( &X&Xa.I = . - 7 a j b *.'.pX-X(.^.=X(.^.(.",
"(.I.=X[.].,X5X5XQ.u.=.v i B N X U gXwX(.l.1.`.Y.U $ O 8 i h n.7.@XfX=X}.(.^.^.(.",
"(.^.].(.].|.qXpXp.u.b h i N 5 g.pXE.c B V 9 6 } =Xa.. 1 a K W V.M.iX5X X(.^.^.(.",
"(.^.(.].`.,X`.0X!.0.x p r # t 7X(.l f.2XdX*XR - x L.I X 1 L u o.W /.tX[.[.(.^.(.",
"(.^.(.1X^.5X2X`.w.-.z 4 q o f.9X,.K +XE b.iXwXt # m ].w e + 4 j h -.sX<X}.].^.(.",
"(.(.I.}.=X|.sXe.M.5.x 4 w 1 2X0Xc.G P.E H 4X$X..X u >.a.U y ; 6 m =.4X5X].5X^.^.",
"(.^.}.{.5X(.rX`.-.3.c 4 1 > ~.XX5Xg.H Z D.7Xu.] O i M T.e k.% 2 W v K.uX(.=X(.(.",
"(.^.}.).}.-X).5X-.;.[ 2 X @ ' .X~.8X2X&X).w.6.x O p b Z.N s.r - K s ,.wX(.(.(.(.",
"(.^.(.1X(.5XZ.E.m.] -.Q O o 7 ) 3.q.p.w.4.4.b 2 + c ' L.X.* < J d u  .uXW.P.(.(.",
"(.(.I.|.[.`.sXm.N._.e.7.6 o o 2 W } M -.m +.S.O 7 -.e.{.2.w < ! a Z K 2Xm.L.(.(.",
"(.(.I.9._.9.{.dX-XU.n.>.[ J 5   V &.Z u 2 V C , } e.J.tXn.1 < A Z f f z.%.V.(.(.",
"(.(.L.X.1.S.K U.wXrXZ.3.;.-.H _ $ w $ o * * : | ~.~.|.pXl.& 7 a f p ^ ~ X.A.(.(.",
"(.(.^.O.f c.T J u.~.tX[.7.;.=.} p : ; 6 H 1.J..XXXr.0X@XN r d.A Z Z D.f ! I.(.^.",
"(.^.(.$.s V sXG.K n 6.~.qX;X(.M.t.>.9.Z./.Q.8X#Xr.XX4X^ - S ^ &.Z K ^ Z +.(.^.^.",
"(.^.(.B.! 8 F F.yX%Xz.>.5.R.XXOXqXtX0X8X0XaX>X7.OXpX#.& T 7 Z Q ` Z H Q B.(.^.^.",
"(.^.^.(.%.! ; + V G.:X6X-XE.p.@X#X7XuXfXuXM.[ `.dXd.. D ..K { o.` &.$.<.(.^.I.(.",
"(.^.^.(.V.@.P a 0 t , L F.%XY.Y.<XfX6XZ.O.~ W.eX#.o q i ! 9.x.@.%.C.%.Z.(.^.I.(.",
"(.^.(.^.(.x.9.P L h.R I 1 q D ..U.h.V , ..3X3XY o -  .$.! { +.b.&.@.B.(.^.^.^.(.",
"(.(.(.^.^.(.B.o.Q N T 9 0 Y D.t @ @ r Y.,Xj.I @ 4 Z / &.{ v.T.&.o.V.(.I.^.^.^.(.",
"^.(.(.^.^.^.^.Z.1. .x.G a 9 4 N T c.c.Y q @ ; 8 K d.%.U.A.v.L.x.A.(.(.(.^.(.(./.",
"(.(.(.^.^.^.^.(.I.V.8.8.! H #.;Xs.1 > 2 8 S H ! +.+.<.x.$.#.B.(.(.I.^.(.^.(.^.^.",
"(.(.(.^.^.^.^.(.I.(.I.A.v.9.<.G P  .{ { Q o.+.<.+.%.&.x.A.(.(.(.(.^.^.^.(.^.^.^.",
"(.(.(.^.^.^.^.^.I.(.(.(.(.I.L.z.L.Z.m.m.B.B.m.z.B.L.I.(.(.(.(.(.(.(.(.^.(.(.^.^.",
"(.(.(.^.^.^.^.^.I.I.(.I.(.(.I.(.(.(.(.(.(.(.(.(.(.(.(.(.^.^.^.(.(.^.^.(.(.(.(.(.",
"(.(.(.(.(.(.(.(.(.(.(.(.(.(.(.(.(.(.(.(.(.(.(.(.(.(.(.(.(.(.(.^.^.(.(.(.(.(.(.(."
};
