/* XPM */
static char *_bab06fffc184216bc4d0624b87302683wui2gHHcIA98Lqx[] = {
/* columns rows colors chars-per-pixel */
"40 40 7 1 ",
"  c #FFFFFF",
". c white",
"X c #FFE091",
"o c #FFAA6E",
"O c #FF695A",
"+ c #B23C40",
"@ c black",
/* pixels */
"                                        ",
"                                        ",
"                                        ",
"                                        ",
"                                        ",
"                                        ",
"                                        ",
"                                        ",
"                                        ",
"                                        ",
"                                        ",
"                                        ",
"                 ....                   ",
"                .XoXo...                ",
"              ..oXoXoXo..               ",
"             .oXoXoOOOOOO.              ",
"             .oXoXOooOooOO.             ",
"            . .XoOooOooOoo.             ",
"           .+. ..OooOooOooO.            ",
"           .O+..OooOooO@@oO.            ",
"           .oO+.OooOooO@.Ooo.           ",
"           .++++OooOooOooOooo.          ",
"           .oO++OooOooOooOo@o.          ",
"           .+++++OooOooOooOo.           ",
"           .oO+.++OOoOOOo++.            ",
"           .O+. .OoXoXo++..             ",
"           .+. .OOOOOOO..               ",
"            .   .......                 ",
"                                        ",
"                                        ",
"                                        ",
"                                        ",
"                                        ",
"                                        ",
"                                        ",
"                                        ",
"                                        ",
"                                        ",
"                                        ",
"                                        "
};
